<svg xmlns="http://www.w3.org/2000/svg" viewBox="0 0 400 120" width="400" height="120">
  <defs>
    <linearGradient id="bgGrad" x1="0%" y1="0%" x2="100%" y2="100%">
      <stop offset="0%" style="stop-color:#1a1a2e;stop-opacity:1" />
      <stop offset="100%" style="stop-color:#16213e;stop-opacity:1" />
    </linearGradient>
    <linearGradient id="textGrad" x1="0%" y1="0%" x2="100%" y2="0%">
      <stop offset="0%" style="stop-color:#e94560;stop-opacity:1" />
      <stop offset="100%" style="stop-color:#0f3460;stop-opacity:1" />
    </linearGradient>
  </defs>
  <rect width="400" height="120" rx="12" ry="12" fill="url(#bgGrad)" />
  <!-- Phoenix icon -->
  <g transform="translate(20, 15)">
    <path d="M45 45 C35 25, 15 20, 10 35 C5 50, 20 60, 35 55 C25 65, 10 75, 15 85 C20 95, 40 90, 45 75 C50 90, 70 95, 75 85 C80 75, 65 65, 55 55 C70 60, 85 50, 80 35 C75 20, 55 25, 45 45 Z" fill="#e94560" opacity="0.9"/>
    <circle cx="45" cy="45" r="8" fill="#f5a623" opacity="0.9"/>
    <circle cx="45" cy="45" r="4" fill="#ffffff" opacity="0.95"/>
  </g>
  <!-- MTCode AI Phoenix text -->
  <text x="110" y="50" font-family="Arial, sans-serif" font-size="26" font-weight="bold" fill="#e94560">MTCode AI</text>
  <text x="110" y="80" font-family="Arial, sans-serif" font-size="26" font-weight="bold" fill="#ffffff">Phoenix</text>
  <!-- Tagline -->
  <text x="110" y="105" font-family="Arial, sans-serif" font-size="13" fill="#a0a0c0">AI-Powered Coding Assistant</text>
</svg>
